<svg xmlns="http://www.w3.org/2000/svg">
  <symbol id="arrow" viewBox="0 0 20 20">
    <path fill-rule="evenodd" d="M8 1a.5.5 0 0 1 .5.5v11.793l3.146-3.147a.5.5 0 0 1 .708.708l-4 4a.5.5 0 0 1-.708 0l-4-4a.5.5 0 0 1 .708-.708L7.5 13.293V1.5A.5.5 0 0 1 8 1z"/>
  </symbol>
  <symbol id="search" viewBox="0 0 20 20">
    <path d="M11.742 10.344a6.5 6.5 0 1 0-1.397 1.398h-.001c.03.04.062.078.098.115l3.85 3.85a1 1 0 0 0 1.415-1.414l-3.85-3.85a1.007 1.007 0 0 0-.115-.1zM12 6.5a5.5 5.5 0 1 1-11 0 5.5 5.5 0 0 1 11 0z"/>
  </symbol>
  <symbol id="arrow-right" viewBox="0 0 20 20">
    <path d="M8.21967 19.7803C7.9534 19.5141 7.9292 19.0974 8.14705 18.8038L8.21967 18.7197L14.689 12.25L8.21967 5.78033C7.9534 5.51406 7.9292 5.0974 8.14705 4.80379L8.21967 4.71967C8.48594 4.4534 8.9026 4.4292 9.19621 4.64705L9.28033 4.71967L16.2803 11.7197C16.5466 11.9859 16.5708 12.4026 16.3529 12.6962L16.2803 12.7803L9.28033 19.7803C8.98744 20.0732 8.51256 20.0732 8.21967 19.7803Z" fill="currentColor"/>
  </symbol>
  <symbol id="arrow-left" viewBox="0 0 20 20">
    <g id="State=Default">
      <path id="Stroke 1" d="M15.7803 4.21967C16.0466 4.48594 16.0708 4.9026 15.8529 5.19621L15.7803 5.28033L9.311 11.75L15.7803 18.2197C16.0466 18.4859 16.0708 18.9026 15.8529 19.1962L15.7803 19.2803C15.5141 19.5466 15.0974 19.5708 14.8038 19.3529L14.7197 19.2803L7.71967 12.2803C7.4534 12.0141 7.4292 11.5974 7.64705 11.3038L7.71967 11.2197L14.7197 4.21967C15.0126 3.92678 15.4874 3.92678 15.7803 4.21967Z" fill="currentColor"/>
    </g>
  </symbol>
</svg>
